<?xml version="1.0" standalone="no"?><!DOCTYPE svg PUBLIC "-//W3C//DTD SVG 1.1//EN" "http://www.w3.org/Graphics/SVG/1.1/DTD/svg11.dtd"><svg t="1679461932065" class="icon" viewBox="0 0 1064 1024" version="1.1" xmlns="http://www.w3.org/2000/svg" p-id="1521" xmlns:xlink="http://www.w3.org/1999/xlink" width="207.8125" height="200"><path d="M651.242056 155.310691a409.574606 409.574606 0 1 0 226.085183 239.601144 40.957461 40.957461 0 1 1 77.122898-27.482456 491.489528 491.489528 0 1 1-271.220304-287.521373 40.957461 40.957461 0 1 1-31.946819 75.402685z" fill="#3c3c43" p-id="1522" data-spm-anchor-id="a313x.7781069.0.i11" class="selected"></path><path d="M587.348418 306.157018a245.744764 245.744764 0 1 0 135.651109 143.760687 40.957461 40.957461 0 1 1 77.163856-27.482456 327.659685 327.659685 0 1 1-180.868146-191.680916 40.957461 40.957461 0 1 1-31.946819 75.402685z" fill="#3c3c43" p-id="1523" data-spm-anchor-id="a313x.7781069.0.i10" class="selected"></path><path d="M485.364341 426.817697a117.711742 117.711742 0 0 0-71.921301 24.164902 114.066528 114.066528 0 0 0-41.367036 62.664915 112.346315 112.346315 0 0 0 6.839896 74.378748 115.090464 115.090464 0 0 0 52.220763 54.309593c23.100008 11.877664 49.558527 15.727665 75.197897 11.058515a116.810678 116.810678 0 0 0 66.105342-36.984587 112.714932 112.714932 0 0 0 7.781917-140.97558L1023.954948 170.464951a40.957461 40.957461 0 0 0 5.4883-62.992574L952.279392 31.660117a40.957461 40.957461 0 0 0-60.617042 3.604257l-334.745326 416.414502a116.196316 116.196316 0 0 0-71.511726-24.861179z" fill="#5468ff" p-id="1524" data-spm-anchor-id="a313x.7781069.0.i9" class=""></path></svg>